<?xml version="1.0" encoding="UTF-8" standalone="no"?>
<!-- Generator: Adobe Illustrator 24.0.1, SVG Export Plug-In . SVG Version: 6.00 Build 0)  -->

<svg
   version="1.1"
   id="Layer_1"
   x="0px"
   y="0px"
   viewBox="0 0 48 48"
   style="enable-background:new 0 0 48 48;"
   xml:space="preserve"
   sodipodi:docname="folder.svg"
   inkscape:version="1.1 (c68e22c387, 2021-05-23)"
   xmlns:inkscape="http://www.inkscape.org/namespaces/inkscape"
   xmlns:sodipodi="http://sodipodi.sourceforge.net/DTD/sodipodi-0.dtd"
   xmlns="http://www.w3.org/2000/svg"
   xmlns:svg="http://www.w3.org/2000/svg"><defs
   id="defs9" /><sodipodi:namedview
   id="namedview7"
   pagecolor="#ffffff"
   bordercolor="#666666"
   borderopacity="1.0"
   inkscape:pageshadow="2"
   inkscape:pageopacity="0.0"
   inkscape:pagecheckerboard="0"
   showgrid="false"
   inkscape:zoom="10.833333"
   inkscape:cx="23.953846"
   inkscape:cy="19.523077"
   inkscape:window-width="1366"
   inkscape:window-height="705"
   inkscape:window-x="-8"
   inkscape:window-y="-8"
   inkscape:window-maximized="1"
   inkscape:current-layer="Layer_1" />
<path
   style="fill:#FFA000;"
   d="M40,12H22l-4-4H8c-2.2,0-4,1.8-4,4v24c0,2.2,1.8,4,4,4h29.7L44,29V16C44,13.8,42.2,12,40,12z"
   id="path2" />

<rect
   style="fill:#cccccc;fill-rule:evenodd;stroke-width:1.06027"
   id="rect848"
   width="31.753849"
   height="26.399998"
   x="10.738462"
   y="9.4461546"
   ry="2.4000001" /><path
   style="fill:#ffca28"
   d="M 40,12 H 8.0000002 c -2.2,0 -4,1.8 -4,4 v 20 c 0,2.2 1.8,4 4,4 H 40 c 2.2,0 4,-1.8 4,-4 V 16 c 0,-2.2 -1.8,-4 -4,-4 z"
   id="path4" /></svg>
