<?xml version="1.0" encoding="UTF-8" standalone="no"?>
<!-- Created with Inkscape (http://www.inkscape.org/) -->

<svg
   version="1.1"
   id="svg2"
   width="450"
   height="450"
   viewBox="0 0 450 450"
   sodipodi:docname="NOJ.svg"
   inkscape:version="1.1 (c68e22c387, 2021-05-23)"
   xmlns:inkscape="http://www.inkscape.org/namespaces/inkscape"
   xmlns:sodipodi="http://sodipodi.sourceforge.net/DTD/sodipodi-0.dtd"
   xmlns="http://www.w3.org/2000/svg"
   xmlns:svg="http://www.w3.org/2000/svg"
   xmlns:rdf="http://www.w3.org/1999/02/22-rdf-syntax-ns#"
   xmlns:cc="http://creativecommons.org/ns#"
   xmlns:dc="http://purl.org/dc/elements/1.1/">
  <title
     id="title10311">NOJ Token</title>
  <defs
     id="defs6" />
  <sodipodi:namedview
     id="namedview4"
     pagecolor="#ffffff"
     bordercolor="#666666"
     borderopacity="1.0"
     inkscape:pageshadow="2"
     inkscape:pageopacity="0.0"
     inkscape:pagecheckerboard="0"
     showgrid="false"
     inkscape:zoom="0.57777778"
     inkscape:cx="197.30769"
     inkscape:cy="253.55769"
     inkscape:window-width="1366"
     inkscape:window-height="705"
     inkscape:window-x="-8"
     inkscape:window-y="-8"
     inkscape:window-maximized="1"
     inkscape:current-layer="g2689" />
  <g
     inkscape:groupmode="layer"
     inkscape:label="Image"
     id="g8">
    <g
       id="g2689"
       transform="matrix(0.97279137,0,0,0.968032,4.9123736,7.198755)">
      <g
         id="g10307"
         inkscape:export-filename="C:\host\htdocs\nojropzf.io\public\img\noj.png"
         inkscape:export-xdpi="96"
         inkscape:export-ydpi="96">
        <path
           style="fill:#3d0d0c;fill-opacity:0.913044;stroke:none"
           d="m 212.21178,1.9451661 c -50.546,6.63663 -95.737,20.4360299 -134.999987,54.8619299 -21.9392,19.2363 -40.1889,42.597598 -53.2469,68.713694 -59.7586,119.517 0.6908,270.95301 128.246887,313.99601 33.771,11.396 69.782,14.466 105,9.722 112.48701,-15.153 197.91201,-118.645 192.96101,-231.71801 -4.476,-102.191 -79.33,-191.275894 -179.96101,-211.3996839 -18.462,-3.6919 -39.192,-6.64544997 -58,-4.17594 m -66,43.5756299 -1,1 1,-1 m 151,0 -1,1 1,-1 m -95,94.999994 h -1 c 0,-5.695 1.525,-18.609 -6.039,-20.654 -8.058,-2.179 -7.961,14.324 -7.961,18.654 -6.197,-12.895 -4.196,-35.418 -1.112,-48.999998 0.919,-4.048096 2.859,-15.472896 9.109,-14.168196 5.665,1.1825 7.068,10.5725 7.999,15.168196 3.459,17.069998 1.195,33.033998 -0.996,49.999998 m 60,3 h -1 c 0.815,-6.451 3.159,-19.788 -5.04,-22.963 -7.2,-2.788 -8.438,11.851 -8.96,15.963 -5.801,-12.921 -3.343,-33.566 -0.335,-46.999998 0.932,-4.162496 3.061,-14.684696 9.295,-13.248496 5.702,1.3137 7.19,11.518196 7.906,16.248496 2.606,17.232998 1.438,33.963998 -1.866,50.999998 m -14,-6 v 3 h -1 l 1,-3 m -47.333,4.667 -0.334,0.666 0.334,-0.666 m -0.667,2.333 -2,3 2,-3 m 61,0 -1,1 1,-1 m -1,2 -1,1 1,-1 m -69,1 7,1 v 1 c -2.743,0.849 -6.403,1.468 -7,-2 m 61,1 h 7 c -1.992,2.253 -6.272,4.223 -7,0 m -3,133 h -20 v -31 l 18.972,3.738 1.028,27.262 m -26,-30 v 30 h -19 v -28 l 19,-2 m -41,58.00001 -1,1 1,-1 m -4,36 -1,1 1,-1 m 6,32 -1,1 z"
           id="path845" />
        <ellipse
           style="fill:none;fill-rule:evenodd;stroke:#008000;stroke-width:16.5899;stroke-miterlimit:4;stroke-dasharray:none;stroke-opacity:1"
           id="path2427"
           cx="225.51483"
           cy="225.18633"
           rx="216.54831"
           ry="221.44365" />
      </g>
    </g>
  </g>
  <metadata
     id="metadata10309">
    <rdf:RDF>
      <cc:Work
         rdf:about="">
        <dc:title>NOJ Token</dc:title>
      </cc:Work>
    </rdf:RDF>
  </metadata>
</svg>
