<?xml version="1.0" encoding="UTF-8" standalone="no"?>
<svg
   width="13.547"
   height="17.291"
   viewBox="0 0 13.547 17.291"
   version="1.1"
   id="svg9"
   sodipodi:docname="Pages.svg"
   inkscape:version="1.1 (c68e22c387, 2021-05-23)"
   xmlns:inkscape="http://www.inkscape.org/namespaces/inkscape"
   xmlns:sodipodi="http://sodipodi.sourceforge.net/DTD/sodipodi-0.dtd"
   xmlns:xlink="http://www.w3.org/1999/xlink"
   xmlns="http://www.w3.org/2000/svg"
   xmlns:svg="http://www.w3.org/2000/svg">
  <defs
     id="defs13">
    <symbol
       id="DownArrow">
      <title
         id="title19510">Down Arrow</title>
      <path
         d="M 36,63 14,41 14,26 30,42 30,10 42,10 42,42 58,26 58,41 z"
         style="stroke:none"
         id="path19512" />
    </symbol>
    <symbol
       id="CurrencyExchange">
      <title
         id="title21251">Currency Exchange</title>
      <rect
         x="11"
         y="14"
         width="50"
         height="22"
         style="fill:none;stroke-width:5.25"
         id="rect21253" />
      <g
         style="stroke:none"
         id="g21271">
        <!-- Dollar -->
        <circle
           cx="36"
           cy="25"
           r="7.25"
           id="circle21255" />
        <path
           d="m 35.1,19 0,1.2 c -0.6,0.1 -1.2,0.4 -1.6,0.7 -0.7,0.5 -1.2,1.2 -1.2,2.1 0,0.7 0.3,1.5 0.9,2 0.4,0.4 1.2,0.7 1.9,0.8 l 0,2.1 C 34.4,27.7 33.9,27 33.9,26.6 l -1.8,0 c 0,1 0.5,1.7 1.2,2.3 0.5,0.4 1.1,0.8 1.8,0.9 l 0,1.2 1.8,0 0,-1.2 c 0.6,-0.1 1.2,-0.3 1.7,-0.6 0.7,-0.5 1.3,-1.25 1.3,-2.2 0,-0.8 -0.3,-1.6 -1,-2.1 -0.5,-0.3 -1.3,-0.6 -2,-0.7 l 0,-2.1 c 0.6,0.3 1,0.9 1,1.3 l 1.8,0 c 0,-1.5 -1.2,-2.8 -2.8,-3.2 l 0,-1.2 z m 0,4.9 c -0.8,-0.2 -1,-0.5 -1,-0.9 0,-0.4 0.5,-0.8 1,-0.9 z m 1.8,2.1 c 0.8,0.2 1.2,0.4 1.2,1 0,0.5 -0.6,0.8 -1.2,1 z"
           style="fill:white"
           id="path21257" />
        <!-- Pound -->
        <circle
           cx="48"
           cy="38"
           r="7.25"
           id="circle21259" />
        <path
           d="m 48,32.6 c -1.6,0 -3.1,1.1 -3.1,2.7 0,0.5 0.1,0.9 0.2,1.3 l -1.1,0 0,1.8 1.4,0 c 0.2,1 -0.3,1.5 -0.8,2.2 l 0,1.8 6.6,0 0,-1.8 -4.4,0 c 0.4,-0.8 0.6,-1.5 0.5,-2.2 l 1.5,0 0,-1.8 -1.9,0 c -0.1,-0.5 -0.2,-1 -0.2,-1.3 0,-0.4 0.5,-0.9 1.3,-0.9 1,0 1.3,0.7 1.3,1.5 l 1.8,0 c 0,-1 -0.3,-1.8 -0.9,-2.4 -0.6,-0.6 -1.3,-0.9 -2.2,-0.9 z"
           style="fill:white"
           id="path21261" />
        <!-- Franc -->
        <circle
           cx="21"
           cy="48"
           r="7.25"
           id="circle21263" />
        <path
           d="m 21.9,46.6 0,5.8 1.8,0 0,-2.4 c 0,-1.6 1.8,-1.7 1.8,-1.7 l 0,-1.7 c -0.4,0 -1.3,0.2 -1.8,1 l 0,-1 z M 21,42.8 c -1.6,0 -2.7,1.2 -2.7,2.7 l 0,1.1 -1.1,0 0,1.8 1.1,0 0,4 1.8,0 0,-4 1.3,0 0,-1.8 -1.3,0 0,-1.1 c 0,-0.7 0.3,-1 0.9,-1 0.6,0 0.9,0.3 0.9,1 l 0,0.5 1.8,0 0,-0.5 C 23.7,44 22.6,42.8 21,42.8 z"
           style="fill:white"
           id="path21265" />
        <!-- Yen -->
        <circle
           cx="43"
           cy="56"
           r="7.25"
           id="circle21267" />
        <path
           d="m 41,51.8 2,3.4 2,-3.4 2,0 -3.1,5.4 2.3,0 0,1.8 -2.3,0 0,2.4 -1.8,0 0,-2.4 -2.3,0 0,-1.8 2.3,0 -3.1,-5.4 z"
           style="fill:white"
           id="path21269" />
      </g>
    </symbol>
  </defs>
  <sodipodi:namedview
     id="namedview11"
     pagecolor="#ffffff"
     bordercolor="#666666"
     borderopacity="1.0"
     inkscape:pageshadow="2"
     inkscape:pageopacity="0.0"
     inkscape:pagecheckerboard="0"
     showgrid="true"
     inkscape:zoom="21.265139"
     inkscape:cx="4.5849689"
     inkscape:cy="9.8518049"
     inkscape:window-width="1366"
     inkscape:window-height="705"
     inkscape:window-x="-8"
     inkscape:window-y="-8"
     inkscape:window-maximized="1"
     inkscape:current-layer="svg9">
    <inkscape:grid
       type="xygrid"
       id="grid14800" />
  </sodipodi:namedview>
  <g
     id="pie-chart"
     transform="translate(-64.838255,-0.51727854)" />
  <use
     xlink:href="#CurrencyExchange"
     style="fill:#8a98b8;stroke:#8a98b8;fill-opacity:1;stroke-opacity:1"
     id="use23806"
     x="0"
     y="0"
     width="100%"
     height="100%"
     transform="matrix(0.21462358,0,0,0.22446949,-0.81606909,0.73507974)" />
</svg>
